<svg width="46" height="45" viewBox="0 0 46 45" fill="none" xmlns="http://www.w3.org/2000/svg">
<path d="M30.6562 16.7188H43.7812V17.875C41.9688 18.0208 40.625 18.4271 39.75 19.0938C38.8958 19.7396 37.5521 21.7188 35.7188 25.0312C33.8854 28.3438 31.8229 31.4375 29.5312 34.3125C31.3854 36.4792 33.0417 38 34.5 38.875C35.9583 39.7292 37.4271 40.1562 38.9062 40.1562C40.3438 40.1562 41.5625 39.7708 42.5625 39C43.5625 38.2083 44.2708 37.0521 44.6875 35.5312L45.8438 36.375C45.0729 39.3125 43.8333 41.4792 42.125 42.875C40.4167 44.2708 38.4271 44.9688 36.1562 44.9688C34.4479 44.9688 32.7083 44.5104 30.9375 43.5938C29.1875 42.6562 27.2708 41.0833 25.1875 38.875C22.6042 41.1667 20.2708 42.7604 18.1875 43.6562C16.125 44.5312 13.9167 44.9688 11.5625 44.9688C8.125 44.9688 5.39583 44.0521 3.375 42.2188C1.35417 40.3854 0.34375 38.1979 0.34375 35.6562C0.34375 33.1354 1.25 30.625 3.0625 28.125C4.875 25.6042 8.28125 23 13.2812 20.3125C12.3021 18.1458 11.6354 16.375 11.2812 15C10.9271 13.6042 10.75 12.2708 10.75 11C10.75 7.4375 12.0625 4.71875 14.6875 2.84375C16.7292 1.38542 19.0521 0.65625 21.6562 0.65625C24.1354 0.65625 26.1562 1.39583 27.7188 2.875C29.2812 4.33333 30.0625 6.13542 30.0625 8.28125C30.0625 10.4896 29.3021 12.4271 27.7812 14.0938C26.2812 15.7604 23.6146 17.5833 19.7812 19.5625C22.4271 24.2708 25.1875 28.5833 28.0625 32.5C31.7292 28.125 33.5625 24.4375 33.5625 21.4375C33.5625 20.4792 33.25 19.625 32.625 18.875C32.1667 18.3125 31.5104 17.9792 30.6562 17.875V16.7188ZM18.7188 17.5312C21.3021 16.3021 23.2292 14.9062 24.5 13.3438C25.7917 11.7812 26.4375 10.0417 26.4375 8.125C26.4375 6.625 25.9688 5.38542 25.0312 4.40625C24.1146 3.42708 22.9688 2.9375 21.5938 2.9375C19.7812 2.9375 18.4062 3.57292 17.4688 4.84375C16.5521 6.09375 16.0938 7.32292 16.0938 8.53125C16.0938 9.55208 16.2708 10.6979 16.625 11.9688C16.9792 13.2188 17.6771 15.0729 18.7188 17.5312ZM23.5625 37.0625C20.8125 33.3125 18.9062 30.5729 17.8438 28.8438C16.7812 27.1146 15.6146 24.9688 14.3438 22.4062C11.8438 23.8438 9.95833 25.4271 8.6875 27.1562C7.4375 28.8854 6.8125 30.7604 6.8125 32.7812C6.8125 35.0104 7.53125 36.9688 8.96875 38.6562C10.4062 40.3438 12.3438 41.1875 14.7812 41.1875C16.0938 41.1875 17.3542 40.9271 18.5625 40.4062C19.7917 39.8854 21.4583 38.7708 23.5625 37.0625Z" fill="black"/>
</svg>
