<svg width="189" height="29" viewBox="0 0 189 29" fill="none" xmlns="http://www.w3.org/2000/svg">
<path d="M23.082 0.910156L23.6875 9.91406H23.082C22.2747 7.21875 21.1224 5.27865 19.625 4.09375C18.1276 2.90885 16.3307 2.31641 14.2344 2.31641C12.4766 2.31641 10.888 2.76562 9.46875 3.66406C8.04948 4.54948 6.92969 5.96875 6.10938 7.92188C5.30208 9.875 4.89844 12.3034 4.89844 15.207C4.89844 17.6029 5.28255 19.6797 6.05078 21.4375C6.81901 23.1953 7.97135 24.543 9.50781 25.4805C11.0573 26.418 12.8216 26.8867 14.8008 26.8867C16.5195 26.8867 18.0365 26.5221 19.3516 25.793C20.6667 25.0508 22.112 23.5859 23.6875 21.3984L24.293 21.7891C22.9648 24.1458 21.4154 25.8711 19.6445 26.9648C17.8737 28.0586 15.7708 28.6055 13.3359 28.6055C8.94792 28.6055 5.54948 26.9779 3.14062 23.7227C1.34375 21.3008 0.445312 18.4492 0.445312 15.168C0.445312 12.5247 1.03776 10.0964 2.22266 7.88281C3.40755 5.66927 5.03516 3.95703 7.10547 2.74609C9.1888 1.52214 11.4609 0.910156 13.9219 0.910156C15.8359 0.910156 17.724 1.37891 19.5859 2.31641C20.1328 2.60286 20.5234 2.74609 20.7578 2.74609C21.1094 2.74609 21.4154 2.6224 21.6758 2.375C22.0143 2.02344 22.2552 1.53516 22.3984 0.910156H23.082ZM48.6094 20.6758L49.2539 20.8125L46.9883 28H26.4805V27.2773H27.4766C28.5964 27.2773 29.3971 26.9128 29.8789 26.1836C30.1523 25.7669 30.2891 24.8034 30.2891 23.293V6.20312C30.2891 4.54948 30.1068 3.51432 29.7422 3.09766C29.2344 2.52474 28.4792 2.23828 27.4766 2.23828H26.4805V1.51562H38.4727V2.23828C37.0664 2.22526 36.0768 2.35547 35.5039 2.62891C34.944 2.90234 34.5599 3.2474 34.3516 3.66406C34.1432 4.08073 34.0391 5.07682 34.0391 6.65234V23.293C34.0391 24.3737 34.1432 25.1159 34.3516 25.5195C34.5078 25.793 34.7487 25.9948 35.0742 26.125C35.3997 26.2552 36.4154 26.3203 38.1211 26.3203H40.0547C42.0859 26.3203 43.5117 26.1706 44.332 25.8711C45.1523 25.5716 45.901 25.0443 46.5781 24.2891C47.2552 23.5208 47.9323 22.3164 48.6094 20.6758ZM62.4766 27.2773V28H51.1289V27.2773H52.0664C53.1602 27.2773 53.9544 26.9583 54.4492 26.3203C54.7617 25.9036 54.918 24.901 54.918 23.3125V6.20312C54.918 4.86198 54.8333 3.97656 54.6641 3.54688C54.5339 3.22135 54.2669 2.94141 53.8633 2.70703C53.2904 2.39453 52.6914 2.23828 52.0664 2.23828H51.1289V1.51562H62.4766V2.23828H61.5195C60.4388 2.23828 59.651 2.55729 59.1562 3.19531C58.8307 3.61198 58.668 4.61458 58.668 6.20312V23.3125C58.668 24.6536 58.7526 25.5391 58.9219 25.9688C59.0521 26.2943 59.3255 26.5742 59.7422 26.8086C60.3021 27.1211 60.8945 27.2773 61.5195 27.2773H62.4766ZM87.5352 0.910156L88.1406 9.91406H87.5352C86.7279 7.21875 85.5755 5.27865 84.0781 4.09375C82.5807 2.90885 80.7839 2.31641 78.6875 2.31641C76.9297 2.31641 75.3411 2.76562 73.9219 3.66406C72.5026 4.54948 71.3828 5.96875 70.5625 7.92188C69.7552 9.875 69.3516 12.3034 69.3516 15.207C69.3516 17.6029 69.7357 19.6797 70.5039 21.4375C71.2721 23.1953 72.4245 24.543 73.9609 25.4805C75.5104 26.418 77.2747 26.8867 79.2539 26.8867C80.9727 26.8867 82.4896 26.5221 83.8047 25.793C85.1198 25.0508 86.5651 23.5859 88.1406 21.3984L88.7461 21.7891C87.418 24.1458 85.8685 25.8711 84.0977 26.9648C82.3268 28.0586 80.224 28.6055 77.7891 28.6055C73.401 28.6055 70.0026 26.9779 67.5938 23.7227C65.7969 21.3008 64.8984 18.4492 64.8984 15.168C64.8984 12.5247 65.4909 10.0964 66.6758 7.88281C67.8607 5.66927 69.4883 3.95703 71.5586 2.74609C73.6419 1.52214 75.9141 0.910156 78.375 0.910156C80.2891 0.910156 82.1771 1.37891 84.0391 2.31641C84.5859 2.60286 84.9766 2.74609 85.2109 2.74609C85.5625 2.74609 85.8685 2.6224 86.1289 2.375C86.4674 2.02344 86.7083 1.53516 86.8516 0.910156H87.5352ZM102.086 13.3125L111.852 23.0195C113.453 24.6211 114.82 25.7148 115.953 26.3008C117.086 26.8737 118.219 27.1992 119.352 27.2773V28H106.754V27.2773C107.509 27.2773 108.049 27.1536 108.375 26.9062C108.714 26.6458 108.883 26.3594 108.883 26.0469C108.883 25.7344 108.818 25.4544 108.688 25.207C108.57 24.9596 108.167 24.4974 107.477 23.8203L98.3359 14.7773V23.3125C98.3359 24.6536 98.4206 25.5391 98.5898 25.9688C98.7201 26.2943 98.9935 26.5742 99.4102 26.8086C99.9701 27.1211 100.562 27.2773 101.188 27.2773H102.086V28H90.7969V27.2773H91.7344C92.8281 27.2773 93.6224 26.9583 94.1172 26.3203C94.4297 25.9036 94.5859 24.901 94.5859 23.3125V6.20312C94.5859 4.86198 94.5013 3.97005 94.332 3.52734C94.2018 3.21484 93.9349 2.94141 93.5312 2.70703C92.9583 2.39453 92.3594 2.23828 91.7344 2.23828H90.7969V1.51562H102.086V2.23828H101.188C100.576 2.23828 99.9831 2.38802 99.4102 2.6875C99.0065 2.89583 98.7266 3.20833 98.5703 3.625C98.4141 4.04167 98.3359 4.90104 98.3359 6.20312V14.3086C98.5964 14.0612 99.4883 13.2344 101.012 11.8281C104.879 8.28646 107.216 5.92318 108.023 4.73828C108.375 4.21745 108.551 3.76172 108.551 3.37109C108.551 3.07161 108.414 2.8112 108.141 2.58984C107.867 2.35547 107.405 2.23828 106.754 2.23828H106.148V1.51562H115.875V2.23828C115.302 2.2513 114.781 2.32943 114.312 2.47266C113.844 2.61589 113.271 2.89583 112.594 3.3125C111.917 3.71615 111.083 4.3737 110.094 5.28516C109.807 5.54557 108.486 6.88021 106.129 9.28906L102.086 13.3125ZM145.406 28L135.172 5.71484V23.4102C135.172 25.0378 135.348 26.0534 135.699 26.457C136.181 27.0039 136.943 27.2773 137.984 27.2773H138.922V28H129.703V27.2773H130.641C131.76 27.2773 132.555 26.9388 133.023 26.2617C133.31 25.8451 133.453 24.8945 133.453 23.4102V6.10547C133.453 4.93359 133.323 4.08724 133.062 3.56641C132.88 3.1888 132.542 2.8763 132.047 2.62891C131.565 2.36849 130.784 2.23828 129.703 2.23828V1.51562H137.203L146.812 22.2383L156.266 1.51562H163.766V2.23828H162.848C161.715 2.23828 160.914 2.57682 160.445 3.25391C160.159 3.67057 160.016 4.62109 160.016 6.10547V23.4102C160.016 25.0378 160.198 26.0534 160.562 26.457C161.044 27.0039 161.806 27.2773 162.848 27.2773H163.766V28H152.516V27.2773H153.453C154.586 27.2773 155.38 26.9388 155.836 26.2617C156.122 25.8451 156.266 24.8945 156.266 23.4102V5.71484L146.051 28H145.406ZM172.984 2.96094V13.4297H178.805C180.315 13.4297 181.324 13.2018 181.832 12.7461C182.509 12.1471 182.887 11.0924 182.965 9.58203H183.688V18.8008H182.965C182.783 17.5117 182.6 16.6849 182.418 16.3203C182.184 15.8646 181.799 15.5065 181.266 15.2461C180.732 14.9857 179.911 14.8555 178.805 14.8555H172.984V23.5859C172.984 24.7578 173.036 25.474 173.141 25.7344C173.245 25.9818 173.427 26.1836 173.688 26.3398C173.948 26.4831 174.443 26.5547 175.172 26.5547H179.664C181.161 26.5547 182.249 26.4505 182.926 26.2422C183.603 26.0339 184.254 25.6237 184.879 25.0117C185.686 24.2044 186.513 22.987 187.359 21.3594H188.141L185.855 28H165.445V27.2773H166.383C167.008 27.2773 167.6 27.1276 168.16 26.8281C168.577 26.6198 168.857 26.3073 169 25.8906C169.156 25.474 169.234 24.6211 169.234 23.332V6.125C169.234 4.44531 169.065 3.41016 168.727 3.01953C168.258 2.4987 167.477 2.23828 166.383 2.23828H165.445V1.51562H185.855L186.148 7.31641H185.387C185.113 5.92318 184.807 4.96615 184.469 4.44531C184.143 3.92448 183.655 3.52734 183.004 3.25391C182.483 3.05859 181.565 2.96094 180.25 2.96094H172.984Z" fill="black"/>
</svg>
