<svg width="289" height="81" viewBox="0 0 289 81" fill="none" xmlns="http://www.w3.org/2000/svg">
<path d="M48.304 80.08C40.176 80.08 33.552 79.12 28.432 77.2C23.312 75.344 19.536 72.816 17.104 69.616C14.672 66.352 13.456 62.704 13.456 58.672C13.456 53.872 14.736 49.488 17.296 45.52C19.856 41.488 23.28 37.904 27.568 34.768C31.92 31.568 36.752 28.848 42.064 26.608C47.376 24.304 52.784 22.512 58.288 21.232C56.688 20.528 55.088 19.856 53.488 19.216C51.888 18.512 50.352 17.84 48.88 17.2C46.064 15.984 42.864 14.8 39.28 13.648C35.76 12.496 32.144 11.536 28.432 10.768C24.72 10 21.2 9.616 17.872 9.616C15.312 9.616 12.848 10.032 10.48 10.864C8.176 11.696 6.256 12.848 4.72 14.32C3.248 15.792 2.512 17.52 2.512 19.504C2.512 21.424 3.28 23.376 4.816 25.36C5.456 26.128 6.384 27.12 7.6 28.336C8.88 29.488 10.224 30.576 11.632 31.6C13.104 32.624 14.352 33.36 15.376 33.808C16.016 34.064 16.336 34.352 16.336 34.672C16.336 34.928 16.048 34.96 15.472 34.768C13.104 34.256 10.736 33.264 8.368 31.792C6 30.256 4.016 28.368 2.416 26.128C0.88 23.824 0.112 21.36 0.112 18.736C0.112 18.032 0.176 17.328 0.304 16.624C0.432 15.92 0.624 15.216 0.88 14.512C1.968 11.504 3.856 9.392 6.544 8.17599C9.232 6.896 12.336 6.256 15.856 6.256C19.568 6.256 23.536 6.768 27.76 7.792C31.984 8.816 36.112 10.096 40.144 11.632C44.24 13.104 47.888 14.608 51.088 16.144C52.496 16.784 54.064 17.488 55.792 18.256C57.584 19.024 59.472 19.824 61.456 20.656C67.216 19.568 72.56 19.024 77.488 19.024C78.128 19.024 78.768 19.024 79.408 19.024C80.048 19.024 80.656 19.056 81.232 19.12C86.736 19.504 91.568 20.432 95.728 21.904C99.888 23.312 102.544 25.2 103.696 27.568C103.888 27.952 103.984 28.368 103.984 28.816C103.984 29.904 103.408 31.024 102.256 32.176C101.168 33.264 99.312 33.808 96.688 33.808C95.792 33.808 94.704 33.712 93.424 33.52C89.2 32.752 84.4 31.408 79.024 29.488C73.648 27.504 68.304 25.424 62.992 23.248C57.68 24.272 52.4 25.808 47.152 27.856C41.968 29.904 37.232 32.432 32.944 35.44C28.72 38.384 25.328 41.776 22.768 45.616C20.272 49.456 19.024 53.68 19.024 58.288C19.024 62.128 20.496 65.456 23.44 68.272C26.384 71.088 30.416 73.232 35.536 74.704C40.656 76.176 46.448 76.88 52.912 76.816C58.032 76.624 63.504 76.016 69.328 74.992C75.152 74.032 81.04 72.592 86.992 70.672C92.944 68.816 98.672 66.416 104.176 63.472C109.744 60.464 114.8 56.816 119.344 52.528C119.472 52.4 119.568 52.336 119.632 52.336C119.76 52.336 119.824 52.432 119.824 52.624C119.824 52.816 119.76 53.008 119.632 53.2C116.688 56.592 113.616 59.504 110.416 61.936C107.216 64.304 103.408 66.544 98.992 68.656C93.808 71.088 88.496 73.104 83.056 74.704C77.616 76.368 72.272 77.616 67.024 78.448C61.776 79.344 56.848 79.856 52.24 79.984C51.6 80.048 50.928 80.08 50.224 80.08C49.584 80.08 48.944 80.08 48.304 80.08ZM98.32 32.08C99.6 32.08 100.464 31.76 100.912 31.12C101.424 30.48 101.68 29.84 101.68 29.2C101.68 27.92 100.944 26.8 99.472 25.84C98.064 24.88 96.208 24.112 93.904 23.536C91.6 22.896 89.104 22.416 86.416 22.096C83.792 21.776 81.296 21.616 78.928 21.616C77.008 21.616 75.024 21.712 72.976 21.904C70.928 22.032 68.816 22.256 66.64 22.576C70.224 23.92 73.872 25.232 77.584 26.512C81.296 27.792 84.784 28.912 88.048 29.872C91.376 30.768 94.224 31.44 96.592 31.888C96.912 31.952 97.2 32.016 97.456 32.08C97.776 32.08 98.064 32.08 98.32 32.08ZM129.017 71.728C126.457 71.728 124.313 71.312 122.585 70.48C120.601 69.52 119.289 68.112 118.649 66.256C118.009 64.4 117.689 62.576 117.689 60.784C117.689 59.824 117.753 58.928 117.881 58.096C118.009 57.2 118.105 56.432 118.169 55.792C117.913 55.92 117.593 55.984 117.209 55.984C116.889 55.984 116.601 55.92 116.345 55.792C116.153 55.664 116.249 55.472 116.633 55.216C116.889 55.024 117.241 54.736 117.689 54.352C118.137 53.968 118.489 53.648 118.745 53.392C119.257 51.664 120.025 49.456 121.049 46.768C122.073 44.016 123.545 41.04 125.465 37.84C126.873 35.472 128.665 32.656 130.841 29.392C133.017 26.128 135.449 22.8 138.137 19.408C140.825 16.016 143.673 12.88 146.681 10C149.753 7.056 152.857 4.688 155.993 2.89599C159.193 1.10399 162.361 0.207994 165.497 0.207994C166.969 0.207994 168.057 0.623995 168.761 1.456C169.529 2.288 169.913 3.44 169.913 4.912C169.913 7.024 169.113 9.744 167.513 13.072C165.849 16.528 163.737 19.824 161.177 22.96C158.681 26.032 156.089 28.816 153.401 31.312C150.777 33.808 148.409 35.984 146.297 37.84C142.905 40.784 139.609 43.344 136.409 45.52C133.273 47.632 130.489 49.392 128.057 50.8C125.625 52.208 123.769 53.296 122.489 54.064C122.233 54.96 122.009 55.984 121.817 57.136C121.625 58.224 121.529 59.312 121.529 60.4C121.529 62.832 122.105 65.04 123.257 67.024C124.409 69.008 126.489 70 129.497 70C131.545 70 133.689 69.584 135.929 68.752C138.233 67.92 140.313 67.056 142.169 66.16C144.921 64.752 147.577 63.248 150.137 61.648C152.697 59.984 154.937 58.416 156.857 56.944C158.841 55.472 160.281 54.32 161.177 53.488C161.433 53.232 161.625 53.104 161.753 53.104C161.817 53.104 161.849 53.168 161.849 53.296C161.849 53.872 161.593 54.416 161.081 54.928C158.393 57.616 155.449 60.176 152.249 62.608C149.113 64.976 145.785 66.992 142.265 68.656C140.089 69.616 137.849 70.352 135.545 70.864C133.305 71.44 131.129 71.728 129.017 71.728ZM123.353 51.472C123.865 51.216 124.857 50.64 126.329 49.744C127.865 48.784 129.689 47.6 131.801 46.192C133.977 44.784 136.217 43.216 138.521 41.488C140.889 39.76 143.129 37.968 145.241 36.112C146.457 35.024 147.961 33.616 149.753 31.888C151.545 30.16 153.401 28.24 155.321 26.128C157.241 23.952 159.033 21.712 160.697 19.408C162.425 17.04 163.801 14.704 164.825 12.4C165.913 10.032 166.457 7.824 166.457 5.776C166.457 3.792 165.657 2.8 164.057 2.8C162.777 2.8 161.145 3.376 159.161 4.528C157.177 5.68 155.065 7.216 152.825 9.136C150.649 10.992 148.505 13.008 146.393 15.184C143.833 17.872 141.369 20.848 139.001 24.112C136.633 27.312 134.425 30.576 132.377 33.904C130.329 37.232 128.537 40.432 127.001 43.504C125.465 46.512 124.249 49.168 123.353 51.472ZM177.424 37.552C176.272 37.552 175.696 36.912 175.696 35.632C175.696 35.12 175.824 34.608 176.08 34.096C176.272 33.584 176.912 33.168 178 32.848C179.088 32.464 180.24 32.208 181.456 32.08C182.736 31.888 183.728 31.792 184.432 31.792C185.008 31.792 185.296 31.824 185.296 31.888C185.296 32.016 184.976 32.208 184.336 32.464C183.696 32.72 183.024 33.04 182.32 33.424C181.616 33.808 181.136 34.256 180.88 34.768C180.56 35.6 180.048 36.272 179.344 36.784C178.704 37.296 178.064 37.552 177.424 37.552ZM161.104 70.768C159.312 70.768 157.744 70.448 156.4 69.808C155.056 69.104 154.384 67.856 154.384 66.064C154.384 64.144 154.864 62.256 155.824 60.4C156.784 58.544 157.936 56.848 159.28 55.312C160.624 53.712 161.936 52.336 163.216 51.184C164.56 49.968 165.552 49.072 166.192 48.496C165.616 48.368 165.712 47.792 166.48 46.768C167.248 45.744 168.368 44.912 169.84 44.272C170.224 44.144 170.576 44.08 170.896 44.08C171.6 44.08 172.304 44.24 173.008 44.56C173.776 44.88 174.16 45.328 174.16 45.904C174.16 46.224 174.032 46.544 173.776 46.864C173.52 47.184 173.264 47.44 173.008 47.632C172.496 48.016 171.696 48.688 170.608 49.648C169.52 50.608 168.336 51.696 167.056 52.912C165.776 54.128 164.56 55.344 163.408 56.56C162.32 57.712 161.456 58.672 160.816 59.44C158.448 62.448 157.264 64.784 157.264 66.448C157.264 68.24 158.704 69.136 161.584 69.136C163.952 69.136 166.256 68.784 168.496 68.08C170.8 67.312 172.944 66.416 174.928 65.392C178.064 63.792 180.976 61.872 183.664 59.632C186.352 57.328 189.136 55.024 192.016 52.72C192.144 52.656 192.304 52.624 192.496 52.624C192.688 52.624 192.784 52.72 192.784 52.912C192.784 53.104 192.656 53.36 192.4 53.68C192.016 54.192 191.216 55.056 190 56.272C188.784 57.424 187.248 58.736 185.392 60.208C183.6 61.68 181.584 63.152 179.344 64.624C177.168 66.032 174.928 67.248 172.624 68.272C171.408 68.784 169.68 69.328 167.44 69.904C165.264 70.48 163.152 70.768 161.104 70.768ZM199.749 71.248C198.277 71.248 196.869 71.088 195.525 70.768C194.245 70.448 193.061 69.968 191.973 69.328C190.565 68.432 189.509 67.408 188.805 66.256C188.165 65.04 187.845 63.76 187.845 62.416C187.845 60.176 188.613 57.84 190.149 55.408C191.685 52.976 193.701 50.672 196.197 48.496C198.757 46.256 201.445 44.4 204.261 42.928C205.989 42.032 207.685 41.392 209.349 41.008C211.013 40.624 212.517 40.432 213.861 40.432C215.397 40.432 216.677 40.656 217.701 41.104C218.725 41.552 219.269 42.128 219.333 42.832C219.589 44.56 219.109 46.224 217.893 47.824C216.677 49.36 215.173 50.736 213.381 51.952C211.589 53.168 209.957 54.192 208.485 55.024C208.229 55.216 207.973 55.312 207.717 55.312C207.269 55.312 207.205 54.992 207.525 54.352C207.909 53.648 208.613 53.04 209.637 52.528C210.469 52.08 211.365 51.472 212.325 50.704C213.285 49.872 214.117 49.008 214.821 48.112C215.525 47.152 215.877 46.32 215.877 45.616C215.877 44.4 214.853 43.792 212.805 43.792C211.461 43.792 209.829 44.24 207.909 45.136C205.989 46.032 203.973 47.216 201.861 48.688C199.813 50.096 197.893 51.696 196.101 53.488C194.309 55.216 192.837 56.976 191.685 58.768C190.597 60.56 190.053 62.192 190.053 63.664C190.053 65.072 190.501 66.224 191.397 67.12C192.357 67.952 193.541 68.56 194.949 68.944C196.421 69.264 197.925 69.424 199.461 69.424C200.229 69.424 200.997 69.392 201.765 69.328C202.533 69.264 203.237 69.168 203.877 69.04C207.205 68.336 210.565 67.12 213.957 65.392C217.413 63.664 220.741 61.68 223.941 59.44C227.141 57.2 230.021 54.96 232.581 52.72C232.709 52.656 232.869 52.624 233.061 52.624C233.317 52.624 233.445 52.688 233.445 52.816C233.445 53.008 233.317 53.264 233.061 53.584C232.613 54.352 231.685 55.344 230.277 56.56C228.933 57.776 227.365 59.024 225.573 60.304C223.845 61.584 222.149 62.8 220.485 63.952C218.821 65.04 217.445 65.904 216.357 66.544C213.989 67.888 211.333 69.008 208.389 69.904C205.445 70.8 202.565 71.248 199.749 71.248ZM255.414 71.632C252.534 71.632 250.102 70.864 248.118 69.328C246.198 67.728 244.79 65.712 243.894 63.28C242.998 60.784 242.582 58.224 242.646 55.6C240.278 57.52 238.07 59.504 236.022 61.552C234.038 63.6 232.214 65.616 230.55 67.6L230.838 68.56C230.966 68.816 231.03 69.168 231.03 69.616C231.03 70.256 230.774 70.736 230.262 71.056C229.814 71.376 229.302 71.536 228.726 71.536C228.278 71.536 227.862 71.44 227.478 71.248C227.094 71.12 226.838 70.864 226.71 70.48C226.326 69.584 226.134 68.624 226.134 67.6C226.134 65.168 226.806 62.416 228.15 59.344C229.558 56.272 231.062 53.264 232.662 50.32C232.47 50.384 232.246 50.416 231.99 50.416C231.478 50.416 231.222 50.288 231.222 50.032C231.222 49.776 231.414 49.52 231.798 49.264C233.206 48.432 234.07 47.696 234.39 47.056C235.542 44.688 237.046 41.968 238.902 38.896C240.822 35.824 242.998 32.624 245.43 29.296C247.926 25.904 250.582 22.64 253.398 19.504C256.278 16.304 259.222 13.424 262.23 10.864C265.238 8.304 268.246 6.256 271.254 4.72C274.262 3.184 277.142 2.41599 279.894 2.41599C282.07 2.41599 283.574 2.86399 284.406 3.75999C285.238 4.65599 285.654 5.744 285.654 7.024C285.654 7.92 285.462 8.848 285.078 9.808C284.758 10.768 284.342 11.664 283.83 12.496C282.102 15.312 279.798 18.16 276.918 21.04C274.102 23.856 270.966 26.608 267.51 29.296C264.118 31.92 260.598 34.384 256.95 36.688C253.366 38.992 249.91 41.072 246.582 42.928C243.318 44.72 240.438 46.224 237.942 47.44C236.662 49.872 235.286 52.624 233.814 55.696C232.342 58.768 231.35 61.52 230.838 63.952C232.118 62.544 233.814 60.912 235.926 59.056C238.038 57.136 240.342 55.184 242.838 53.2C243.03 51.728 243.35 50.48 243.798 49.456C244.182 48.368 244.598 47.6 245.046 47.152C245.494 46.704 245.942 46.48 246.39 46.48C246.902 46.48 247.35 46.736 247.734 47.248C248.118 47.696 248.374 48.208 248.502 48.784C251.318 46.672 254.102 44.752 256.854 43.024C259.67 41.232 262.23 39.792 264.534 38.704C266.902 37.616 268.79 37.072 270.198 37.072C271.99 37.072 272.886 37.744 272.886 39.088C272.886 39.728 272.566 40.4 271.926 41.104C271.286 41.744 270.358 42.16 269.142 42.352C265.622 42.864 262.038 43.952 258.39 45.616C254.806 47.216 251.35 49.168 248.022 51.472C247.126 53.648 246.678 55.92 246.678 58.288C246.678 60.144 246.998 61.936 247.638 63.664C248.278 65.328 249.27 66.704 250.614 67.792C252.022 68.816 253.846 69.328 256.086 69.328C258.262 69.328 260.598 68.88 263.094 67.984C265.59 67.088 268.086 65.968 270.582 64.624C273.142 63.216 275.542 61.712 277.782 60.112C280.086 58.512 282.07 57.04 283.734 55.696C284.438 55.12 285.078 54.64 285.654 54.256C286.294 53.872 286.934 53.36 287.574 52.72C287.702 52.656 287.862 52.624 288.054 52.624C288.246 52.624 288.342 52.72 288.342 52.912C288.342 53.104 288.214 53.36 287.958 53.68C287.574 54.128 286.71 54.96 285.366 56.176C284.022 57.392 282.358 58.768 280.374 60.304C278.454 61.84 276.342 63.344 274.038 64.816C271.798 66.288 269.526 67.568 267.222 68.656C265.942 69.296 264.182 69.936 261.942 70.576C259.766 71.28 257.59 71.632 255.414 71.632ZM239.094 45.136C242.806 43.088 246.646 40.912 250.614 38.608C254.582 36.24 258.454 33.712 262.23 31.024C266.07 28.336 269.622 25.392 272.886 22.192C276.15 18.992 278.902 15.536 281.142 11.824C281.462 11.312 281.91 10.512 282.486 9.424C283.062 8.336 283.35 7.344 283.35 6.44799C283.35 6 283.19 5.616 282.87 5.296C282.614 4.912 282.102 4.72 281.334 4.72C280.118 4.72 278.486 5.2 276.438 6.16C274.39 7.056 272.214 8.272 269.91 9.808C267.606 11.28 265.398 12.848 263.286 14.512C261.238 16.176 259.542 17.776 258.198 19.312C256.534 21.232 254.742 23.344 252.822 25.648C250.902 27.888 249.014 30.192 247.158 32.56C245.366 34.928 243.734 37.2 242.262 39.376C240.854 41.552 239.798 43.472 239.094 45.136Z" fill="black"/>
</svg>
