<svg width="111" height="46" viewBox="0 0 111 46" fill="none" xmlns="http://www.w3.org/2000/svg">
<path d="M18.125 21.5L33.75 37.0312C36.3125 39.5938 38.5 41.3438 40.3125 42.2812C42.125 43.1979 43.9375 43.7188 45.75 43.8438V45H25.5938V43.8438C26.8021 43.8438 27.6667 43.6458 28.1875 43.25C28.7292 42.8333 29 42.375 29 41.875C29 41.375 28.8958 40.9271 28.6875 40.5312C28.5 40.1354 27.8542 39.3958 26.75 38.3125L12.125 23.8438V37.5C12.125 39.6458 12.2604 41.0625 12.5312 41.75C12.7396 42.2708 13.1771 42.7188 13.8438 43.0938C14.7396 43.5938 15.6875 43.8438 16.6875 43.8438H18.125V45H0.0625V43.8438H1.5625C3.3125 43.8438 4.58333 43.3333 5.375 42.3125C5.875 41.6458 6.125 40.0417 6.125 37.5V10.125C6.125 7.97917 5.98958 6.55208 5.71875 5.84375C5.51042 5.34375 5.08333 4.90625 4.4375 4.53125C3.52083 4.03125 2.5625 3.78125 1.5625 3.78125H0.0625V2.625H18.125V3.78125H16.6875C15.7083 3.78125 14.7604 4.02083 13.8438 4.5C13.1979 4.83333 12.75 5.33333 12.5 6C12.25 6.66667 12.125 8.04167 12.125 10.125V23.0938C12.5417 22.6979 13.9688 21.375 16.4062 19.125C22.5938 13.4583 26.3333 9.67708 27.625 7.78125C28.1875 6.94792 28.4688 6.21875 28.4688 5.59375C28.4688 5.11458 28.25 4.69792 27.8125 4.34375C27.375 3.96875 26.6354 3.78125 25.5938 3.78125H24.625V2.625H40.1875V3.78125C39.2708 3.80208 38.4375 3.92708 37.6875 4.15625C36.9375 4.38542 36.0208 4.83333 34.9375 5.5C33.8542 6.14583 32.5208 7.19792 30.9375 8.65625C30.4792 9.07292 28.3646 11.2083 24.5938 15.0625L18.125 21.5ZM54.5312 0.5625C55.4062 0.5625 56.1458 0.875 56.75 1.5C57.375 2.10417 57.6875 2.84375 57.6875 3.71875C57.6875 4.59375 57.375 5.34375 56.75 5.96875C56.1458 6.59375 55.4062 6.90625 54.5312 6.90625C53.6562 6.90625 52.9062 6.59375 52.2812 5.96875C51.6562 5.34375 51.3438 4.59375 51.3438 3.71875C51.3438 2.84375 51.6458 2.10417 52.25 1.5C52.875 0.875 53.6354 0.5625 54.5312 0.5625ZM57.125 15.5312V38.5312C57.125 40.3229 57.25 41.5208 57.5 42.125C57.7708 42.7083 58.1562 43.1458 58.6562 43.4375C59.1771 43.7292 60.1146 43.875 61.4688 43.875V45H47.5625V43.875C48.9583 43.875 49.8958 43.7396 50.375 43.4688C50.8542 43.1979 51.2292 42.75 51.5 42.125C51.7917 41.5 51.9375 40.3021 51.9375 38.5312V27.5C51.9375 24.3958 51.8438 22.3854 51.6562 21.4688C51.5104 20.8021 51.2812 20.3438 50.9688 20.0938C50.6562 19.8229 50.2292 19.6875 49.6875 19.6875C49.1042 19.6875 48.3958 19.8438 47.5625 20.1562L47.125 19.0312L55.75 15.5312H57.125ZM83.5625 15.5312V25.2812H82.5312C81.7396 22.2188 80.7188 20.1354 79.4688 19.0312C78.2396 17.9271 76.6667 17.375 74.75 17.375C73.2917 17.375 72.1146 17.7604 71.2188 18.5312C70.3229 19.3021 69.875 20.1562 69.875 21.0938C69.875 22.2604 70.2083 23.2604 70.875 24.0938C71.5208 24.9479 72.8333 25.8542 74.8125 26.8125L79.375 29.0312C83.6042 31.0938 85.7188 33.8125 85.7188 37.1875C85.7188 39.7917 84.7292 41.8958 82.75 43.5C80.7917 45.0833 78.5938 45.875 76.1562 45.875C74.4062 45.875 72.4062 45.5625 70.1562 44.9375C69.4688 44.7292 68.9062 44.625 68.4688 44.625C67.9896 44.625 67.6146 44.8958 67.3438 45.4375H66.3125V35.2188H67.3438C67.9271 38.1354 69.0417 40.3333 70.6875 41.8125C72.3333 43.2917 74.1771 44.0312 76.2188 44.0312C77.6562 44.0312 78.8229 43.6146 79.7188 42.7812C80.6354 41.9271 81.0938 40.9062 81.0938 39.7188C81.0938 38.2812 80.5833 37.0729 79.5625 36.0938C78.5625 35.1146 76.5521 33.875 73.5312 32.375C70.5104 30.875 68.5312 29.5208 67.5938 28.3125C66.6562 27.125 66.1875 25.625 66.1875 23.8125C66.1875 21.4583 66.9896 19.4896 68.5938 17.9062C70.2188 16.3229 72.3125 15.5312 74.875 15.5312C76 15.5312 77.3646 15.7708 78.9688 16.25C80.0312 16.5625 80.7396 16.7188 81.0938 16.7188C81.4271 16.7188 81.6875 16.6458 81.875 16.5C82.0625 16.3542 82.2812 16.0312 82.5312 15.5312H83.5625ZM108.5 15.5312V25.2812H107.469C106.677 22.2188 105.656 20.1354 104.406 19.0312C103.177 17.9271 101.604 17.375 99.6875 17.375C98.2292 17.375 97.0521 17.7604 96.1562 18.5312C95.2604 19.3021 94.8125 20.1562 94.8125 21.0938C94.8125 22.2604 95.1458 23.2604 95.8125 24.0938C96.4583 24.9479 97.7708 25.8542 99.75 26.8125L104.312 29.0312C108.542 31.0938 110.656 33.8125 110.656 37.1875C110.656 39.7917 109.667 41.8958 107.688 43.5C105.729 45.0833 103.531 45.875 101.094 45.875C99.3438 45.875 97.3438 45.5625 95.0938 44.9375C94.4062 44.7292 93.8438 44.625 93.4062 44.625C92.9271 44.625 92.5521 44.8958 92.2812 45.4375H91.25V35.2188H92.2812C92.8646 38.1354 93.9792 40.3333 95.625 41.8125C97.2708 43.2917 99.1146 44.0312 101.156 44.0312C102.594 44.0312 103.76 43.6146 104.656 42.7812C105.573 41.9271 106.031 40.9062 106.031 39.7188C106.031 38.2812 105.521 37.0729 104.5 36.0938C103.5 35.1146 101.49 33.875 98.4688 32.375C95.4479 30.875 93.4688 29.5208 92.5312 28.3125C91.5938 27.125 91.125 25.625 91.125 23.8125C91.125 21.4583 91.9271 19.4896 93.5312 17.9062C95.1562 16.3229 97.25 15.5312 99.8125 15.5312C100.938 15.5312 102.302 15.7708 103.906 16.25C104.969 16.5625 105.677 16.7188 106.031 16.7188C106.365 16.7188 106.625 16.6458 106.812 16.5C107 16.3542 107.219 16.0312 107.469 15.5312H108.5Z" fill="black"/>
</svg>
